<svg width="69" height="69" viewBox="0 0 69 69" fill="none" xmlns="http://www.w3.org/2000/svg">
<path d="M48.5896 3H19.813C10.5275 3 3 10.5275 3 19.813V48.5895C3 57.875 10.5275 65.4025 19.813 65.4025H48.5895C57.875 65.4025 65.4025 57.875 65.4025 48.5895V19.813C65.4026 10.5275 57.8751 3 48.5896 3Z" stroke="black" stroke-width="5.33055" stroke-miterlimit="10"/>
<path d="M34.2014 49.264C42.5203 49.264 49.2641 42.5202 49.2641 34.2013C49.2641 25.8824 42.5203 19.1386 34.2014 19.1386C25.8825 19.1386 19.1387 25.8824 19.1387 34.2013C19.1387 42.5202 25.8825 49.264 34.2014 49.264Z" stroke="black" stroke-width="5.33055" stroke-miterlimit="10"/>
<path d="M52.4916 19.1387C54.2742 19.1387 55.7193 17.6936 55.7193 15.911C55.7193 14.1283 54.2742 12.6832 52.4916 12.6832C50.709 12.6832 49.2639 14.1283 49.2639 15.911C49.2639 17.6936 50.709 19.1387 52.4916 19.1387Z" fill="black"/>
</svg>
